<svg xmlns="http://www.w3.org/2000/svg" width="33" height="33" viewBox="0 0 33 33">
  <g id="ic_evaluate_property" transform="translate(0.5 0.5)">
    <rect id="Rectangle_4461-3" data-name="Rectangle 4461-3" width="32" height="32" fill="#f9a825" stroke="#f9a825" stroke-width="1" opacity="0"/>
    <g id="_005-tag-1" data-name="005-tag-1" transform="translate(5.37 4.027)">
      <path id="Path_6490" data-name="Path 6490" d="M97.656,249.623a.816.816,0,0,1,.826.806.413.413,0,0,0,.826,0,1.619,1.619,0,0,0-1.239-1.554v-.46a.413.413,0,0,0-.826,0v.46a1.61,1.61,0,0,0-1.225,1.76,1.635,1.635,0,0,0,1.638,1.4.806.806,0,1,1-.826.805.413.413,0,0,0-.826,0,1.619,1.619,0,0,0,1.239,1.554v.46a.413.413,0,0,0,.826,0V254.4a1.61,1.61,0,0,0,1.23-1.761,1.635,1.635,0,0,0-1.643-1.4.806.806,0,1,1,0-1.611Zm0,0" transform="translate(-91.047 -235.527)" fill="#f9a825"/>
      <path id="Path_6491" data-name="Path 6491" d="M98.9,200.012H96.417a.4.4,0,1,0,0,.805H98.9a.4.4,0,1,0,0-.805Zm0,0" transform="translate(-91.047 -189.943)" fill="#f9a825"/>
      <path id="Path_6492" data-name="Path 6492" d="M98.9,424.012H96.417a.4.4,0,1,0,0,.806H98.9a.4.4,0,1,0,0-.806Zm0,0" transform="translate(-91.047 -402.667)" fill="#f9a825"/>
      <path id="Path_6493" data-name="Path 6493" d="M20.984,15.506,14.92,5.267a6.815,6.815,0,0,0,.984-1.2,2.752,2.752,0,0,0,.346-2.906C15.324-.4,12.4-.386,9.59,1.194A10.24,10.24,0,0,0,8.516,1.9l-.333-.369a2.128,2.128,0,0,0-3.139,0L.528,6.52A2.011,2.011,0,0,0,0,7.871V20.54a3.676,3.676,0,0,0,3.718,3.625H9.5a3.676,3.676,0,0,0,3.718-3.625V7.871a2,2,0,0,0-.33-1.094h0a10.1,10.1,0,0,0,1.4-.953l5.973,10.085a2.781,2.781,0,0,1-1.058,3.852L14.2,22.58a2.908,2.908,0,0,1-.7.279.4.4,0,0,0-.293.493.414.414,0,0,0,.505.286,3.768,3.768,0,0,0,.9-.36l5.008-2.819A3.575,3.575,0,0,0,20.984,15.506ZM12.4,20.54A2.859,2.859,0,0,1,9.5,23.359H3.721A2.859,2.859,0,0,1,.83,20.54V7.871a1.218,1.218,0,0,1,.317-.818L5.663,2.065a1.287,1.287,0,0,1,1.9,0l4.029,4.451a6.985,6.985,0,0,1-2.945.637,1.945,1.945,0,0,0,.032-.306A2.042,2.042,0,0,0,6.613,4.834a.412.412,0,0,0-.133.026.408.408,0,0,0-.448.307,2.2,2.2,0,0,0,.2,1.635,2.228,2.228,0,0,0,1.2.941,1.258,1.258,0,0,1-1.333.21,1.2,1.2,0,0,1-.732-1.107.413.413,0,0,0-.826,0,2.018,2.018,0,0,0,1.48,1.931,2.088,2.088,0,0,0,2.317-.842q.244.025.49.026a8.131,8.131,0,0,0,3.317-.814,1.211,1.211,0,0,1,.244.722ZM7.852,6.847a1.173,1.173,0,0,1-.018.176A1.5,1.5,0,0,1,6.95,6.4a1.265,1.265,0,0,1-.157-.743A1.218,1.218,0,0,1,7.852,6.847Zm4.629-.772c-.041.023-.082.043-.124.066L9.065,2.5A9.391,9.391,0,0,1,10,1.894C12.33.583,14.863.435,15.535,1.572a2.027,2.027,0,0,1-.333,2.08,5.787,5.787,0,0,1-.71.893l0-.007a2.082,2.082,0,0,0-1.146-.915L11.723,3.09a.415.415,0,0,0-.512.257.4.4,0,0,0,.249.506l1.618.53a1.263,1.263,0,0,1,.694.554l.105.178a9.207,9.207,0,0,1-1.4.963Zm0,0" transform="translate(-0.004 0)" fill="#f9a825" stroke="#f9a825" stroke-width="0.5"/>
      <path id="Path_6494" data-name="Path 6494" d="M272.059,280.657a.419.419,0,0,0,.564.147l2.862-1.611a.4.4,0,0,0,0-.7.422.422,0,0,0-.415,0l-2.862,1.611A.4.4,0,0,0,272.059,280.657Zm0,0" transform="translate(-257.96 -264.423)" fill="#f9a825"/>
      <path id="Path_6495" data-name="Path 6495" d="M282.188,322.629a.419.419,0,0,0,.564.148l3.577-2.014a.4.4,0,0,0,.151-.55.419.419,0,0,0-.564-.148l-3.577,2.014A.4.4,0,0,0,282.188,322.629Zm0,0" transform="translate(-267.566 -303.901)" fill="#f9a825"/>
    </g>
  </g>
</svg>
