<svg xmlns="http://www.w3.org/2000/svg" width="33" height="33" viewBox="0 0 33 33">
  <g id="ic_ask_neighbors" transform="translate(0.5 0.5)">
    <rect id="Rectangle_4461-3" data-name="Rectangle 4461-3" width="32" height="32" fill="#f9a825" stroke="#f9a825" stroke-width="1" opacity="0"/>
    <path id="_001-discuss-issue" data-name="001-discuss-issue" d="M18.488,21.238a1.951,1.951,0,0,1-.922,1.468c-.147.121-.422.341-.421.423a.583.583,0,0,1-.594.581h0a.585.585,0,0,1-.6-.571,1.747,1.747,0,0,1,.849-1.324c.3-.245.494-.417.494-.574a.593.593,0,0,0-1.186,0,.6.6,0,0,1-1.2,0,1.792,1.792,0,0,1,3.582,0Zm-1.926,3.011a.581.581,0,0,0-.586.585v0a.579.579,0,0,0,.586.582.586.586,0,1,0,0-1.172ZM4.486,28.322a.585.585,0,1,0,0,1.169h.05a.585.585,0,1,0,0-1.169Zm2.082,0a.585.585,0,1,0,0,1.169h.05a.585.585,0,1,0,0-1.169Zm17.6-9.338v6.581a2.846,2.846,0,0,1-2.877,2.822h-7.77c-.152,0-.277,0-.382,0s-.233,0-.281,0c-.05.032-.173.142-.291.249l-.157.14-2.2,1.955a.621.621,0,0,1-.652.1.6.6,0,0,1-.37-.535V24.1H2.91A1.7,1.7,0,0,0,1.2,25.761v6.581A1.671,1.671,0,0,0,2.91,33.973h8.679a.609.609,0,0,1,.4.165L13.78,35.75V30.193a.6.6,0,0,1,1.2,0v6.882a.576.576,0,0,1-.353.532.587.587,0,0,1-.237.047.614.614,0,0,1-.4-.159l-2.627-2.352H2.91A2.857,2.857,0,0,1,0,32.342v-6.58A2.882,2.882,0,0,1,2.91,22.93H9.186V18.984a2.873,2.873,0,0,1,2.92-2.81h9.181A2.835,2.835,0,0,1,24.164,18.984Zm-1.2,0a1.649,1.649,0,0,0-1.679-1.64H12.107a1.687,1.687,0,0,0-1.722,1.64v9.989l1.2-1.062c.056-.05.118-.1.164-.136a1.531,1.531,0,0,1,1.408-.559c.1,0,.214,0,.356,0h7.77a1.66,1.66,0,0,0,1.679-1.653V18.984Z" transform="translate(4.027 -10.804)" fill="#f9a825" stroke="#f9a825" stroke-width="0.1"/>
  </g>
</svg>
