<svg id="ic_emblem" xmlns="http://www.w3.org/2000/svg" width="32" height="32" viewBox="0 0 32 32">
  <rect id="Rectangle_4461-3" data-name="Rectangle 4461-3" width="32" height="32" fill="#000" opacity="0"/>
  <path id="Emblem" d="M315.84,112a7.963,7.963,0,0,0-8,7.908c0,6.223,6.442,14.242,8,16.092,1.559-1.845,8-9.85,8-16.092a7.964,7.964,0,0,0-8-7.908m-1.845,2.046a6.328,6.328,0,0,1,1.845-.275,6.2,6.2,0,0,1,4.27,1.692l.166.153-.217.069a34.468,34.468,0,0,1-5.515,1.257l-.117.019-.03-.115a16.328,16.328,0,0,1-.5-2.658l-.011-.109Zm5.624,3.5-.112.257a9.869,9.869,0,0,1-2.861,3.692l-.115.092-.081-.124a17.07,17.07,0,0,1-1.422-2.753l-.065-.156.166-.024a36.878,36.878,0,0,0,4.216-.908Zm-9.294-.45A6.253,6.253,0,0,1,312.111,115l.182-.135.03.221c.093.64.223,1.285.38,1.913l.04.147-.155.015c-.686.061-1.406.1-2.14.121l-.223.006Zm.046,6.579-.03-.09a11.487,11.487,0,0,1-.709-3.678,6.221,6.221,0,0,1,.055-.834l.016-.115h.118c1.1-.007,2.218-.066,3.329-.177l.1-.011.035.1a18.214,18.214,0,0,0,1.762,3.507l.074.121-.128.067a9.82,9.82,0,0,1-4.535,1.112Zm7.258,7c-.447.662-.921,1.334-1.422,2l-.368.493-.372-.493a47.423,47.423,0,0,1-2.841-4.276l-.141-.238.278.043a9.335,9.335,0,0,1,4.846,2.295l.083.074Zm1.995-3.283c-.3.546-.616,1.1-.943,1.633l-.083.133-.12-.1a11.112,11.112,0,0,0-6.837-2.612h-.081l-.037-.074c-.158-.313-.3-.6-.418-.883l-.075-.172.19-.013a11.46,11.46,0,0,0,4.8-1.4l.1-.053.07.088a18.447,18.447,0,0,0,3.4,3.285l.092.069Zm.814-1.607-.132-.105a16.7,16.7,0,0,1-2.7-2.642l-.086-.1.108-.082a11.5,11.5,0,0,0,3.741-5.193l.118-.336.131.331a5.967,5.967,0,0,1,.433,2.248,14.212,14.212,0,0,1-1.538,5.728Z" transform="translate(-299.84 -108)" fill="#000"/>
</svg>
