<svg xmlns="http://www.w3.org/2000/svg" width="32" height="32" viewBox="0 0 32 32">
  <g id="ic_idea" transform="translate(0 0)">
    <rect id="Rectangle_4461-3" data-name="Rectangle 4461-3" width="32" height="32" transform="translate(0 0)" fill="#f9a825" opacity="0"/>
    <g id="Group_17770" data-name="Group 17770" transform="translate(3.999 4)">
      <path id="Path_8143" data-name="Path 8143" d="M61.473,51.743a6.216,6.216,0,0,0-6.209,6.209,6.131,6.131,0,0,0,1.328,3.828c.171.218.352.427.542.648l.01.012a6.052,6.052,0,0,1,1.412,2.2,3.852,3.852,0,0,1,.055.83v.474a.786.786,0,0,0,.786.786h4.116a.786.786,0,0,0,.786-.786v-.48a3.347,3.347,0,0,1,.054-.768,6.778,6.778,0,0,1,1.49-2.306l.026-.03c.172-.2.334-.392.482-.58a6.131,6.131,0,0,0,1.33-3.83A6.216,6.216,0,0,0,61.473,51.743Zm3.644,9.067c-.129.165-.282.344-.444.534l-.032.037a7.907,7.907,0,0,0-1.8,2.9,3.538,3.538,0,0,0-.108.88H60.183a3.731,3.731,0,0,0-.109-.93,7.452,7.452,0,0,0-1.739-2.816l-.011-.012c-.179-.207-.347-.4-.5-.594a4.575,4.575,0,0,1-.992-2.856,4.637,4.637,0,1,1,9.273,0A4.574,4.574,0,0,1,65.117,60.81Z" transform="translate(-49.841 -46.321)" fill="#f9a825"/>
      <path id="Path_8144" data-name="Path 8144" d="M92.114,196.91H88a.786.786,0,1,0,0,1.572h4.116a.786.786,0,1,0,0-1.572Z" transform="translate(-78.441 -176.275)" fill="#f9a825"/>
      <path id="Path_8145" data-name="Path 8145" d="M99.875,214.018H97.817a.786.786,0,0,0,0,1.572h2.058a.786.786,0,1,0,0-1.572Z" transform="translate(-87.231 -191.59)" fill="#f9a825"/>
      <path id="Path_8146" data-name="Path 8146" d="M188.124,103.491h-2.711a.786.786,0,1,0,0,1.572h2.711a.786.786,0,1,0,0-1.572Z" transform="translate(-165.647 -92.646)" fill="#f9a825"/>
      <path id="Path_8147" data-name="Path 8147" d="M7.8,104.277a.786.786,0,0,0-.786-.786H4.3a.786.786,0,0,0,0,1.572H7.016A.786.786,0,0,0,7.8,104.277Z" transform="translate(-3.518 -92.646)" fill="#f9a825"/>
      <path id="Path_8148" data-name="Path 8148" d="M107.8,4.284a.786.786,0,0,0,.786-.786V.786a.786.786,0,0,0-1.572,0V3.5A.786.786,0,0,0,107.8,4.284Z" transform="translate(-96.164)" fill="#f9a825"/>
      <path id="Path_8149" data-name="Path 8149" d="M163.231,158.6a.786.786,0,1,0-1.112,1.111l1.917,1.918a.786.786,0,0,0,1.112-1.111Z" transform="translate(-145.292 -141.775)" fill="#f9a825"/>
      <path id="Path_8150" data-name="Path 8150" d="M35.979,33.569a.786.786,0,0,0,1.112-1.111l-1.917-1.917a.786.786,0,1,0-1.112,1.111Z" transform="translate(-30.655 -27.134)" fill="#f9a825"/>
      <path id="Path_8151" data-name="Path 8151" d="M35.979,158.6l-1.917,1.918a.786.786,0,0,0,1.112,1.111l1.917-1.918a.786.786,0,0,0-1.112-1.111Z" transform="translate(-30.655 -141.776)" fill="#f9a825"/>
      <path id="Path_8152" data-name="Path 8152" d="M162.68,33.8a.784.784,0,0,0,.556-.23l1.917-1.917a.786.786,0,0,0-1.112-1.111l-1.917,1.917a.786.786,0,0,0,.556,1.342Z" transform="translate(-145.296 -27.134)" fill="#f9a825"/>
    </g>
  </g>
</svg>
