<svg xmlns="http://www.w3.org/2000/svg" width="32" height="32" viewBox="0 0 32 32">
  <g id="ic_sell_property" transform="translate(-0.12 -0.12)">
    <rect id="Rectangle_4461-3" data-name="Rectangle 4461-3" width="32" height="32" transform="translate(0.12 0.12)" opacity="0"/>
    <g id="Group_6522" data-name="Group 6522" transform="translate(4.058 6.087)">
      <path id="Path_8061" data-name="Path 8061" d="M431.715,475.791l-.071-.054-11.435-11.5a.751.751,0,0,0-.889-.125l-.249.179-11.346,11.448a.782.782,0,0,0-.2.519.705.705,0,0,0,.231.519.761.761,0,0,0,1.031,0L411,474.557v9a.723.723,0,0,0,.711.751h15.951a.754.754,0,0,0,.747-.751v-8.979l2.205,2.218a.71.71,0,0,0,.516.215.674.674,0,0,0,.534-.233.76.76,0,0,0,.213-.537A.8.8,0,0,0,431.715,475.791Zm-4.8,7.048h-14.44v-9.767l.071-.072,7.131-7.191.2.179,7.042,7.084Z" transform="translate(-407.53 -464.018)"/>
      <path id="Path_8080" data-name="Path 8080" d="M381.716,454.251a.656.656,0,0,1-.183.478.575.575,0,0,1-.451.211H377.9v3.246a.713.713,0,0,1-.211.464.667.667,0,0,1-.451.169h-.028a.654.654,0,0,1-.465-.211.644.644,0,0,1-.169-.478v-3.19h-3.256a.661.661,0,0,1-.634-.689.677.677,0,0,1,.211-.45.615.615,0,0,1,.479-.169h3.2v-3.19a.67.67,0,0,1,.634-.632h.028a.674.674,0,0,1,.663.632v3.19h3.186A.657.657,0,0,1,381.716,454.251Z" transform="translate(-365.045 -441.99)"/>
    </g>
  </g>
</svg>
