<svg id="instagram-logo" xmlns="http://www.w3.org/2000/svg" width="16" height="16" viewBox="0 0 16 16">
  <path id="Path_6077" data-name="Path 6077" d="M11.584,0H4.415A4.42,4.42,0,0,0,0,4.415v7.169A4.42,4.42,0,0,0,4.415,16h7.169A4.42,4.42,0,0,0,16,11.585V4.415A4.42,4.42,0,0,0,11.584,0Zm3,11.585a3,3,0,0,1-3,3H4.415a3,3,0,0,1-3-3V4.415a3,3,0,0,1,3-3h7.169a3,3,0,0,1,3,3v7.169Z" fill="#fff"/>
  <path id="Path_6078" data-name="Path 6078" d="M45.091,40.97a4.123,4.123,0,1,0,4.123,4.123A4.127,4.127,0,0,0,45.091,40.97Zm0,6.826a2.7,2.7,0,1,1,2.7-2.7A2.706,2.706,0,0,1,45.091,47.8Z" transform="translate(-37.091 -37.093)" fill="#fff"/>
  <path id="Path_6079" data-name="Path 6079" d="M119.962,28.251a1.04,1.04,0,1,0,.736.3A1.045,1.045,0,0,0,119.962,28.251Z" transform="translate(-107.666 -25.577)" fill="#fff"/>
</svg>
