<svg xmlns="http://www.w3.org/2000/svg" width="23.273" height="16" viewBox="0 0 23.273 16">
  <path id="Subtraction_2" data-name="Subtraction 2" d="M11.64,16C8.792,16,5.15,15.956,3.7,15.87c-1.4-.1-2.086-.314-2.714-1.421C.313,13.3,0,11.256,0,8.007V8C0,4.707.3,2.716.985,1.542,1.617.426,2.3.213,3.7.132,5.164.035,8.892,0,11.64,0s6.472.035,7.933.133c1.4.079,2.083.292,2.711,1.409.684,1.167.989,3.157.989,6.455v.012c0,3.3-.3,5.286-.988,6.442-.623,1.108-1.309,1.326-2.711,1.421C18.115,15.956,14.478,16,11.64,16ZM8.727,3.636v8.727L16,8,8.727,3.636Z" fill="#fff"/>
</svg>
